<svg version="1.2" xmlns="http://www.w3.org/2000/svg" viewBox="0 0 1400 1400" width="1400" height="1400">
	<title>0</title>
	<style>
		.s0 { fill: #000000 } 
	</style>
	<path id="d" class="s0" aria-label="d"  d="m966 151.9q68.6 0 67.3 65.3l-20.5 954.6q-0.6 71.9-71.9 70.6-52.8-1.4-57.4-56.8-97.6 62-208.4 61.4-114.1-0.7-201.9-87.1-97.6-97.6-102.9-227.6-5.9-175.4 91-294.8 91.7-112.9 239.5-112.9 79.2 0 138.5 33.7 31 17.8 56.8 35.6l9.2-380.6q1.3-60 60.7-61.4zm-80.5 884.6q7.3-137.2 7.3-290.9-116.8-120.7-230.3-93-83.1 20.5-120 66-52.1 65.3-54.8 182.1-1.3 75.2 54.8 148.4 44.8 59.4 132.6 69.2 92.3 10.6 210.4-81.8z"/>
</svg>