<svg version="1.2" xmlns="http://www.w3.org/2000/svg" viewBox="0 0 1400 1400" width="1400" height="1400">
	<title>1</title>
	<style>
		.s0 { fill: #ff0000 } 
	</style>
	<path id="C" class="s0" aria-label="C"  d="m649.5 372.4q-62.6 41.5-110.8 124-54.1 93-54.1 252.6 0 147.1 62.7 243.5 50.1 75.8 133.9 79.8 119.4 5.9 184-36.3 93.7-60 130.6-52.1 64 11.9 54.1 100.9-5.2 50.1-132.6 102.3-104.8 43.5-226.2 38.9-159.7-5.3-254.7-130.6-96.3-126.7-95.6-330.5 0-243.4 88.4-369.4 129.3-182.1 273.1-205.2 137.2-21.8 247.4 34.3 83.7 42.9 86.4 80.5 2.6 48.1-23.1 73.2-46.8 43.5-96.3 9.2-45.5-31-104.2-44.8-87.8-19.8-163 29.7z"/>
</svg>