<svg version="1.2" xmlns="http://www.w3.org/2000/svg" viewBox="0 0 1400 1400" width="1400" height="1400">
	<title>2</title>
	<style>
		.s0 { fill: #0000ff } 
	</style>
	<path id="M" class="s0" aria-label="M"  d="m670.2 1185.5q0 0 0 0-60.7-3.9-85.7-107.5l-141.2-564.7-138.5 616.8q-22.5 103.6-92.4 64-62-35-38.2-137.9l182-777.1q21.1-89 81.8-98.2 62-9.3 79.2 62 0 0 160.9 677.4l197.3-644.4q33.6-109.6 100.3-107.6 60.6 1.3 83.7 112.2l170.2 824.6q19.8 94.3-51.4 102.9-75.9 9.2-98.3-105.6l-116.1-597.6-193.3 565.3q-40.9 120.1-100.3 115.4z"/>
</svg>