<svg version="1.2" xmlns="http://www.w3.org/2000/svg" viewBox="0 0 1400 1400" width="1400" height="1400">
	<title>3</title>
	<style>
		.s0 { fill: #6e346a } 
	</style>
	<path id="Boop! Beep?" class="s0" aria-label="Boop!
Beep?"  d="m97.8 201l-2.9 124.8q82.5 9 103.2-21.7 23.7-35.4 8.8-65.2-17.8-35.4-74.9-37.1-17.1-0.5-34.2-0.8zm-24.2-48q5.6 0 10 1.2 12.7-2.5 59.3 1.9 90.6 8.8 113.3 73.5 19.3 55.4-25.8 107.2-5.2 5.9-12.5 10.7 16.4 4.9 23.2 10 64 47.9 38.3 117.2-15.6 41-80.3 56.9-66.6 16.4-130.6 10.3-2 0.2-4.4 0.2-22-0.5-21.2-26.6l8-339.8q0.5-22.7 22.7-22.7zm20.3 220.9l-2.7 121.8q25.1 2 48.3-0.7 27.4-3.4 57.9-14.4 34.2-12.5 38.8-37.4 5.4-30.5-23.4-49.8-22.2-14.6-60.8-18.3-36.2-3.2-58.1-1.2zm356.4-54.2q-32 0.7-47.8 22.2-24.4 33.2-24.4 73 0 38.3 17.5 57.4 18.1 19.5 41.5 19.5 26.7 0 45-19.5 19.2-20.8 19.5-66.7 0.2-86.9-51.3-85.9zm-1.9-49.8q98.8 0.7 98.6 140.6-0.2 59.6-26.4 90.6-29.3 37.4-89.3 36.9-43.5-0.3-73.8-36.2-27.3-32.4-27.3-91.3 0-55.6 32.7-98.6 32.2-42.5 85.5-42zm264.9 49.8q-32 0.7-47.9 22.2-24.4 33.2-24.4 73 0 38.3 17.6 57.4 18 19.5 41.5 19.5 26.6 0 44.9-19.5 19.3-20.8 19.5-66.7 0.3-86.9-51.2-85.9zm-2-49.8q98.9 0.7 98.6 140.6-0.2 59.6-26.3 90.6-29.3 37.4-89.4 36.9-43.4-0.3-73.7-36.2-27.4-32.4-27.4-91.3 0-55.6 32.8-98.6 32.2-42.5 85.4-42zm179.9 395.5q-25.4 0-24.9-24.4l7.9-353.3q0.4-26.6 26.6-26.1 12.7 0.2 18.8 14.2 12.2-9.6 57.1-9.1 43.4 0.3 75.4 34.9 31.8 34 31.8 79.4 0.2 65.7-28.6 101.5-32.2 40.1-79.6 43.5-41.7 3.2-58.1-13.2-0.2-0.2-0.7-0.5l-3 130.2q-0.4 22.9-22.7 22.9zm30.1-336.7l-3 126.5q23.7 26.4 51.1 24.4 36.1-2.4 54.7-30 15.8-23.2 16.3-56.9 0.5-31.5-18.3-54.9-16.1-20.1-47.4-24.2-33.2-4.4-53.4 15.1zm231.2 153.1q3.6-1 7.5-0.7 4.2 0 8.1 1 7.6 2.2 13.2 7.8 6.6 6.1 8 13.4 0.8 3.9 1 8.1 0 4.8-0.7 7.5-2.5 9.1-9.1 15.2-6.8 6.1-16.3 7.3-2 0.2-4.2 0.5-7 0-13.1-3.2-8.3-3.9-13-12-4.1-7-4.1-15.3 0-6.2 2.2-11.8 2.6-6.6 8.3-11.2 4.8-4.6 12.2-6.6zm10-347.9q21.7 0 21.7 22l-0.2 273.9q0 19.5-22.3 19.5-0.4 0-0.9 0-19.8 0.5-19.8-21l-0.2-272.9q0-0.2 0-0.5-0.3-21.5 20.7-21 0.5 0 1 0zm-1064.7 667.1l-2.9 124.8q82.5 9 103.2-21.7 23.7-35.4 8.8-65.2-17.8-35.4-74.9-37.1-17.1-0.5-34.2-0.8zm-24.2-48q5.6 0 10 1.2 12.7-2.5 59.3 1.9 90.6 8.8 113.3 73.5 19.3 55.4-25.8 107.2-5.2 5.9-12.5 10.7 16.4 4.9 23.2 10 64 47.9 38.3 117.2-15.6 41-80.3 56.9-66.6 16.4-130.6 10.3-2 0.2-4.4 0.2-22-0.5-21.2-26.6l8-339.8q0.5-22.7 22.7-22.7zm20.3 220.9l-2.7 121.8q25.1 2 48.3-0.7 27.4-3.4 57.9-14.4 34.2-12.5 38.8-37.4 5.4-30.5-23.4-49.8-22.2-14.6-60.8-18.3-36.2-3.2-58.1-1.2zm443.6 22.7l-164.1 23.7q1.2 27.6 24.9 48.3 27.4 24.2 61.5 24 49.8-0.5 66.9-19.6 16.4-18.3 26.9-20.5 11.7-2.4 16.6 7.3 11.5 22.7-10.7 42.5-39.1 34.7-102.6 34.2-46.6-0.5-81.5-29.3-43.5-35.6-43.5-96.7 0-50.3 27.4-89.6 34.1-49.1 88.3-52.5 56.4-3.4 88.2 27.9 30 29.3 28.8 66.6-1 30-27.1 33.7zm-158.7-16.6l143.5-21q-3.6-21.2-22.2-33.2-21.5-13.7-45.6-13.4-33.7 0-58.1 30-10.8 13.4-17.6 37.6zm432.6 16.6l-164.1 23.7q1.3 27.6 24.9 48.3 27.4 24.2 61.6 24 49.8-0.5 66.9-19.6 16.3-18.3 26.8-20.5 11.7-2.4 16.6 7.3 11.5 22.7-10.7 42.5-39.1 34.7-102.6 34.2-46.6-0.5-81.5-29.3-43.5-35.6-43.5-96.7 0-50.3 27.4-89.6 34.2-49.1 88.4-52.5 56.4-3.4 88.1 27.9 30 29.3 28.8 66.6-1 30-27.1 33.7zm-158.7-16.6l143.6-21q-3.7-21.2-22.2-33.2-21.5-13.7-45.7-13.4-33.7 0-58.1 30-10.7 13.4-17.6 37.6zm260.5 285.4q-25.4 0-24.9-24.4l7.8-353.3q0.5-26.6 26.6-26.1 12.7 0.2 18.8 14.2 12.2-9.6 57.2-9.1 43.4 0.3 75.4 34.9 31.7 34 31.7 79.4 0.3 65.7-28.5 101.5-32.3 40.1-79.6 43.5-41.8 3.2-58.1-13.2-0.3-0.2-0.8-0.5l-2.9 130.2q-0.5 22.9-22.7 22.9zm30-336.7l-2.9 126.5q23.7 26.4 51 24.4 36.2-2.4 54.7-30 15.9-23.2 16.4-56.9 0.5-31.5-18.3-54.9-16.1-20.1-47.4-24.2-33.2-4.4-53.5 15.1zm266.6 154.3q3.7-0.9 7.6-0.7 4.2 0 8.1 1 7.5 2.2 13.2 7.8 6.5 6.1 8 13.4 0.7 3.9 1 8.1 0 4.9-0.7 7.5-2.5 9.1-9.1 15.2-6.8 6.1-16.3 7.3-2 0.2-4.2 0.5-7.1 0-13.2-3.2-8.3-3.9-12.9-11.9-4.2-7.1-4.2-15.4 0-6.1 2.2-11.7 2.7-6.6 8.3-11.3 4.9-4.6 12.2-6.6zm-53.7-283.9q28.8-32.5 92.3-33.7 84.5-1.7 95.7 78.4 13.7 94.2-51.2 112-45.9 12.5-45.9 33-1 48.6-23 49.8-33.2 1.7-26.4-54.2 6.1-50.5 56.2-66.2 49.8-15.3 39.8-65.6-6.6-33-43.2-37.4-33.7-4.1-53.3 13.2-30.2 27.1-43.4 16.8-22.5-17.5 2.4-46.1z"/>
</svg>