<svg version="1.2" xmlns="http://www.w3.org/2000/svg" viewBox="0 0 1400 1400" width="1400" height="1400">
	<title>4</title>
	<style>
		.s0 { fill: #0000ff } 
	</style>
	<path id="c!" class="s0" aria-label="c!"  d="m739 1069.8q58-38.9 95 23.1 21.8 36.9-34.3 86.4-72.6 62-228.3 61.4-122.7-0.7-203.8-79.2-100.9-97.6-100.9-244.7 0-162.3 71.9-265.9 87-126 221.6-135.9 78.5-5.9 143.2 15.2 79.8 27 106.2 67.9 40.2 63.4-4.6 95.7-31 22.4-95-25.1-77.2-57.4-174.8-26.4-54.8 17.2-99 80.5-50.1 72.6-52.1 166.3-2 88.4 51.4 161.6 48.9 65.3 135.9 68.6 89.7 3.3 167.6-49.5zm291.6 19.8q9.9-2.6 20.4-2 11.2 0 21.8 2.7 20.4 5.9 35.6 21.1 17.8 16.5 21.8 36.3 2 10.5 2.6 21.7 0 13.2-2 20.5-6.6 24.4-24.4 40.9-18.4 16.5-44.2 19.8-5.2 0.6-11.2 1.3-19.1 0-35.6-8.6-22.4-10.6-35-32.3-11.2-19.2-11.2-41.6 0-16.5 6-31.6 7.2-17.9 22.4-30.4 13.2-12.5 33-17.8zm27-940q58.7 0 58.7 59.3l-0.6 740.2q0 52.8-60.1 52.8-1.3 0-2.6 0-53.4 1.3-53.4-56.8l-0.7-737.5q0-0.6 0-1.3-0.7-58 56.1-56.7 1.3 0 2.6 0z"/>
</svg>