<svg version="1.2" xmlns="http://www.w3.org/2000/svg" viewBox="0 0 1400 1400" width="1400" height="1400">
	<title>5</title>
	<defs>
		<linearGradient id="g1" x2="1" gradientUnits="userSpaceOnUse" gradientTransform="matrix(0,-1405,760,0,700,1402)">
			<stop offset="0" stop-color="#ff00bc"/>
			<stop offset=".51" stop-color="#00d2ff"/>
			<stop offset="1" stop-color="#eeff00"/>
		</linearGradient>
	</defs>
	<style>
		.s0 { fill: url(#g1) } 
	</style>
	<path id=":)" class="s0" aria-label=":)"  d="m403.3 351.5q1.3 0 2.6 0 22.4 0 41.6 11.2 20.4 11.9 31 33 9.2 17.8 9.2 38.2 0 3.3 0 6.6-2 23.8-16.5 42.9-13.2 17.2-29 24.4-16.5 8.6-37 7.9-1.9 0-3.9 0-20.5-0.6-37.6-11.2-17.8-10.5-29-29-11.3-19.1-11.3-41.6 0-21.1 10.6-39.6 11.2-19.1 28.4-31 18.4-11.8 40.9-11.8zm-2.7 632.6q1.3 0 2.7 0 22.4 0 41.5 11.2 20.5 11.9 31 33 9.3 17.8 9.3 38.3 0 3.2 0 6.5-2 23.8-16.5 42.9-13.2 17.2-29.1 24.4-16.4 8.6-36.9 7.9-2 0-4 0-20.4-0.6-37.6-11.2-17.8-10.5-29-29-11.2-19.1-11.2-41.5 0-21.2 10.6-39.6 11.2-19.2 28.3-31 18.5-11.9 40.9-11.9zm364.2 244.1q131.2-88.4 166.2-380 21.1-176.8-14.5-348.3-42.2-201.9-139.9-291.6-120-109.5-69.9-162.3 46.2-48.8 151.7 62.1 76.6 81.8 130.6 209.7 76.6 176.2 83.2 353.6 7.2 205.8-55.4 401.1-44.2 136.5-149.1 232.2-105.6 96.3-154.4 59.4-69.9-54.1 51.5-135.9z"/>
</svg>