<svg version="1.2" xmlns="http://www.w3.org/2000/svg" viewBox="0 0 1400 1400" width="1400" height="1400">
	<title>6</title>
	<style>
		.s0 { fill: #eeff00 } 
	</style>
	<path id="%" class="s0" aria-label="%"  d="m913.6 143.6q45.5 23.1 25.7 66l-467.7 1016.5q-25.1 54.1-79.2 30.4-53.4-24.5-28.3-77.9l479.5-1017.2q20.5-42.9 70-17.8zm-562.7-7.9q31.6-11.2 65.9-11.2 17.8 0 34.3 3.3 53.5 9.9 92.4 42.8 40.2 34.3 57.4 82.5 11.9 32.3 11.9 67.3 0 16.5-3.3 33-9.3 53.4-44.2 93.6-35 40.9-85.8 58.1-30.3 10.5-63.3 10.5-20.5 0-40.3-3.9-52.7-11.2-92.3-47.5-38.3-35-53.5-83.8-9.2-29-9.9-60.7 0-19.8 4-38.9 10.6-52.1 44.2-89 35-39 82.5-56.1zm66.6 283h0.6q27.8 0 50.8-14.5 23.8-14.5 37-38.3 11.9-22.4 11.9-47.5 0-2 0-4-1.4-29-16.5-50.7-9.9-15.9-27.1-27.8-16.5-11.2-35.6-15.1-9.9-2.7-21.1-2.7-29.7 0-54.1 15.9-28.4 17.8-40.2 49.4-6.6 17.2-6 35 0 14.5 4 28.4 9.2 32.3 36.3 52.1 27 19.8 60 19.8zm467.7 379.3q35.6-12.5 73.9-12.5 19.8 0 38.9 3.9 60 10.6 102.9 47.5 44.9 38.9 64 93 13.2 36.3 13.2 75.2 0 18.5-2.7 37-10.5 60-49.4 104.8-38.9 45.6-96.3 65.4-34.3 11.8-71.3 11.8-23.1 0-44.8-4.6-59.4-12.5-103.6-52.8-42.9-38.9-60.7-94.3-10.6-33-10.6-67.9 0-22.5 4.7-43.6 11.8-58.7 49.4-99.6 39-44.2 92.4-63.3zm74.5 317.3h0.7q31 0 57.4-15.8 26.4-15.9 40.9-42.9 13.2-25.1 13.2-53.5 0-2.6 0-4.6-1.3-32.3-17.8-56.7-11.2-17.8-31-31-17.8-12.5-39.6-17.2-11.2-2.6-23.8-2.6-33.6 0-60.7 17.8-31.6 20.5-44.8 55.4-7.3 19.2-7.3 38.9 0 16.5 4.7 31.7 10.5 36.3 40.9 58.7 30.3 22.4 67.2 21.8z"/>
</svg>