<svg version="1.2" xmlns="http://www.w3.org/2000/svg" viewBox="0 0 1400 1400" width="1400" height="1400">
	<title>8</title>
	<style>
		.s0 { fill: #000000 } 
	</style>
	<path id="!?" class="s0" aria-label="!?"  d="m382.6 1087.6q9.9-2.6 20.4-2 11.3 0 21.8 2.7 20.5 5.9 35.6 21.1 17.8 16.5 21.8 36.3 2 10.5 2.6 21.7 0 13.2-1.9 20.5-6.6 24.4-24.4 40.9-18.5 16.5-44.2 19.8-5.3 0.6-11.3 1.3-19.1 0-35.6-8.6-22.4-10.6-34.9-32.3-11.3-19.2-11.3-41.6 0-16.5 6-31.6 7.2-17.9 22.4-30.4 13.2-12.5 33-17.8zm27-940q58.8 0 58.8 59.3l-0.7 740.2q0 52.8-60 52.8-1.4 0-2.7 0-53.4 1.3-53.4-56.8l-0.7-737.5q0-0.6 0-1.3-0.6-58 56.1-56.7 1.3 0 2.6 0zm389.9 943.3q9.9-2.6 20.5-2 11.2 0 21.7 2.7 20.5 5.9 35.6 21.1 17.9 16.5 21.8 36.2 2 10.6 2.7 21.8 0 13.2-2 20.5-6.6 24.4-24.4 40.9-18.5 16.5-44.2 19.8-5.3 0.6-11.2 1.3-19.2 0-35.7-8.6-22.4-10.6-34.9-32.3-11.2-19.2-11.2-41.6 0-16.5 5.9-31.6 7.2-17.9 22.4-30.4 13.2-12.5 33-17.8zm-145.1-767.2q77.8-87.7 249.3-91 228.3-4.6 258.6 211.7 37 254.7-138.5 302.8-124 33.7-124 89.1-2.7 131.2-62 134.5-89.8 4.7-71.3-146.4 16.5-136.6 151.7-178.8 134.6-41.5 107.6-177.4-17.8-89.1-116.8-101-91-11.2-143.8 35.7-81.8 73.2-117.4 45.5-60.7-47.5 6.6-124.7z"/>
</svg>